<svg xmlns="http://www.w3.org/2000/svg" width="512" height="512" viewBox="0 0 512 512" overflow="hidden"><defs><clipPath id="gum-clip-0" clipPathUnits="userSpaceOnUse"><rect x="0" y="0" width="512" height="512"/></clipPath><clipPath id="gum-clip-1" clipPathUnits="userSpaceOnUse"><rect x="0" y="0" width="481.28" height="481.28" rx="96.256" ry="96.256"/></clipPath></defs><g clip-path="url(#gum-clip-0)"><g transform="translate(15.36 15.36)"><rect x="0" y="0" width="481.28" height="481.28" rx="96.256" ry="96.256" fill="#1f1f1f" stroke="none" stroke-width="0" stroke-linecap="butt" stroke-linejoin="miter" stroke-miterlimit="4"/><g clip-path="url(#gum-clip-1)"><g transform="translate(131.4496 131.4496)"><ellipse cx="109.1904" cy="109.1904" rx="109.1904" ry="109.1904" fill="#ffffff" stroke="none" stroke-width="1" stroke-linecap="butt" stroke-linejoin="miter" stroke-miterlimit="4"/></g><g transform="translate(281.5488 131.2992)"><ellipse cx="16.8448" cy="16.8448" rx="16.8448" ry="16.8448" fill="#1f1f1f" stroke="none" stroke-width="1" stroke-linecap="butt" stroke-linejoin="miter" stroke-miterlimit="4"/></g><path d="M-99.264 115.9584L478.272 251.0176L580.544 365.3216L3.008 230.2624Z" fill="#1f1f1f" stroke="none" stroke-width="1" stroke-linecap="butt" stroke-linejoin="miter" stroke-miterlimit="4"/><path d="M76.4032 167.5456L403.6736 244.0992L414.5024 256.1312L87.232 179.5776Z" fill="#ffffff" stroke="none" stroke-width="1" stroke-linecap="butt" stroke-linejoin="miter" stroke-miterlimit="4"/><path d="M4.2112 170.704L451.8016 275.3824L462.6304 287.264L15.04 182.5856Z" fill="#ffffff" stroke="none" stroke-width="1" stroke-linecap="butt" stroke-linejoin="miter" stroke-miterlimit="4"/><path d="M66.7776 205.296L398.8608 282.9024L409.6896 294.9344L77.6064 217.1776Z" fill="#ffffff" stroke="none" stroke-width="1" stroke-linecap="butt" stroke-linejoin="miter" stroke-miterlimit="4"/><path d="M95.6544 231.9168L466.24 318.6976L477.0688 330.5792L106.4832 243.9488Z" fill="#ffffff" stroke="none" stroke-width="1" stroke-linecap="butt" stroke-linejoin="miter" stroke-miterlimit="4"/></g></g></g></svg>
